<?xml version="1.0" standalone="no"?>
<!DOCTYPE svg PUBLIC "-//W3C//DTD SVG 20010904//EN"
 "http://www.w3.org/TR/2001/REC-SVG-20010904/DTD/svg10.dtd">
<svg version="1.0" xmlns="http://www.w3.org/2000/svg"
 width="700.000000pt" height="700.000000pt" viewBox="0 0 700.000000 700.000000"
 preserveAspectRatio="xMidYMid meet">
<metadata>
Created by potrace 1.14, written by Peter Selinger 2001-2017
</metadata>
<g transform="translate(0.000000,700.000000) scale(0.100000,-0.100000)"
fill="#000000" stroke="none">
<path d="M3220 6993 c-103 -13 -212 -31 -260 -43 -106 -26 -158 -42 -179 -58
-22 -16 -53 -86 -66 -147 -2 -11 -11 -51 -19 -90 -23 -106 -25 -123 -33 -220
-29 -381 49 -701 235 -964 92 -129 254 -281 364 -340 184 -100 291 -139 486
-176 87 -16 265 -22 395 -12 151 12 392 65 444 97 29 18 53 72 68 149 2 13 7
31 10 41 38 118 63 413 40 467 -13 30 -58 63 -88 63 -9 0 -17 26 -26 88 -6 48
-14 98 -17 112 -3 20 2 29 28 45 46 29 58 78 34 148 -29 82 -112 244 -163 315
-61 86 -203 227 -285 285 -120 84 -324 178 -438 201 -14 3 -36 7 -50 10 -41 9
-73 15 -110 22 -38 6 -330 12 -370 7z"/>
<path d="M1287 4709 c-84 -13 -97 -50 -97 -273 l0 -174 -47 -7 c-85 -12 -107
-16 -168 -31 -255 -64 -509 -228 -686 -444 -142 -172 -245 -410 -277 -635 -14
-102 -6 -367 13 -435 2 -8 7 -30 10 -48 3 -18 17 -66 30 -107 122 -363 397
-655 755 -802 73 -30 204 -66 285 -79 72 -11 127 -13 465 -13 l336 -1 39 -37
c323 -307 659 -500 1070 -617 50 -14 108 -28 130 -32 22 -3 43 -8 46 -10 11
-6 200 -33 289 -40 107 -9 277 -9 400 -1 96 7 120 10 220 28 30 5 69 12 85 14
17 3 73 17 126 30 476 121 931 403 1260 782 158 181 349 490 414 668 10 28 22
55 26 60 20 29 106 325 125 433 2 12 6 34 9 50 3 15 8 50 11 77 3 28 9 61 12
75 3 14 7 354 9 755 4 785 5 758 -49 798 -26 19 -54 20 -2416 21 -1314 0
-2405 -2 -2425 -5z m-94 -1324 c3 -110 9 -216 12 -235 5 -36 12 -86 21 -155
19 -138 105 -431 170 -573 19 -41 34 -79 34 -85 0 -15 -246 -2 -300 16 -185
61 -326 180 -393 330 -54 120 -58 140 -62 271 -2 74 2 117 17 170 57 208 219
377 422 442 39 12 72 21 72 21 1 -1 4 -92 7 -202z"/>
<path d="M448 737 c-59 -22 -90 -84 -69 -140 20 -52 51 -70 121 -72 l45 -1 21
-70 c12 -38 30 -96 39 -129 39 -133 121 -230 245 -289 l65 -31 2755 -2 c2754
-1 2756 -1 2815 19 71 25 125 60 183 119 53 55 80 113 122 262 34 121 35 122
87 117 35 -2 93 30 109 62 26 49 7 118 -40 149 -18 12 -517 14 -3248 14 -1775
1 -3237 -3 -3250 -8z"/>
</g>
</svg>
